<svg width="453" height="88" viewBox="0 0 453 88" fill="none" xmlns="http://www.w3.org/2000/svg">
<g filter="url(#filter0_d_1_149)">
<g clip-path="url(#clip0_1_149)">
<path d="M73.9127 20.1747C73.8639 20.1514 73.8135 20.1317 73.7618 20.1157C71.376 19.186 68.8385 18.7102 66.2791 18.7125H64.1519C64.0114 18.7123 63.8722 18.74 63.7423 18.7938C63.6125 18.8477 63.4945 18.9267 63.3951 19.0264C63.2958 19.1261 63.217 19.2445 63.1633 19.3748C63.1096 19.5051 63.0821 19.6447 63.0823 19.7857V48.3783C63.0927 48.6557 63.2098 48.9183 63.4092 49.1109C63.6085 49.3035 63.8744 49.4111 64.1512 49.4111C64.4279 49.4111 64.6938 49.3035 64.8931 49.1109C65.0925 48.9183 65.2096 48.6557 65.22 48.3783V20.8574H66.276C68.3557 20.8562 70.4206 21.2062 72.3845 21.8927V42.1073C72.3853 42.9968 72.7377 43.8496 73.3644 44.4787C73.9912 45.1078 74.841 45.4618 75.7276 45.463H84.8623V50.0039H77.0657C76.922 49.9985 76.7786 50.0222 76.6442 50.0737C76.5098 50.1251 76.3872 50.2033 76.2836 50.3034C76.18 50.4035 76.0975 50.5235 76.0413 50.6564C75.985 50.7892 75.9559 50.932 75.9559 51.0763C75.9559 51.2207 75.985 51.3635 76.0413 51.4963C76.0975 51.6291 76.18 51.7492 76.2836 51.8493C76.3872 51.9494 76.5098 52.0275 76.6442 52.079C76.7786 52.1304 76.922 52.1542 77.0657 52.1487H84.8623V56.5701H73.7754C73.6317 56.5647 73.4883 56.5884 73.3539 56.6398C73.2195 56.6913 73.0969 56.7694 72.9933 56.8695C72.8897 56.9696 72.8072 57.0897 72.7509 57.2225C72.6947 57.3553 72.6656 57.4982 72.6656 57.6425C72.6656 57.7868 72.6947 57.9296 72.7509 58.0625C72.8072 58.1953 72.8897 58.3153 72.9933 58.4154C73.0969 58.5156 73.2195 58.5937 73.3539 58.6451C73.4883 58.6966 73.6317 58.7203 73.7754 58.7149H85.9319C86.2152 58.7149 86.4869 58.602 86.6872 58.401C86.8875 58.2 87 57.9275 87 57.6432V39.5053C86.9955 35.3396 85.746 31.2709 83.413 27.8249C81.0801 24.379 77.7708 21.7142 73.9127 20.1747ZM75.7231 43.3167C75.403 43.3167 75.096 43.1891 74.8696 42.962C74.6433 42.7349 74.5162 42.4269 74.5162 42.1058V22.7978C77.6198 24.3404 80.2327 26.7216 82.0606 29.6734C83.8885 32.6251 84.8588 36.0302 84.8623 39.5053V43.3167H75.7231Z" fill="#6D91EE"/>
<path d="M14.8968 50.134C12.7416 50.134 10.6348 50.7752 8.84283 51.9766C7.05087 53.1779 5.6542 54.8854 4.82944 56.8831C4.00469 58.8809 3.7889 61.0792 4.20935 63.1999C4.62981 65.3207 5.66763 67.2688 7.19157 68.7978C8.71552 70.3268 10.6571 71.3681 12.7709 71.7899C14.8847 72.2118 17.0757 71.9953 19.0668 71.1678C21.0579 70.3403 22.7598 68.939 23.9571 67.1411C25.1545 65.3432 25.7936 63.2294 25.7936 61.067C25.7904 58.1684 24.6413 55.3894 22.5984 53.3398C20.5556 51.2901 17.7858 50.1372 14.8968 50.134ZM14.8968 69.8552C13.1644 69.8552 11.4709 69.3398 10.0305 68.3741C8.59007 67.4085 7.46739 66.0359 6.80444 64.4301C6.14149 62.8243 5.96803 61.0573 6.306 59.3525C6.64397 57.6478 7.47819 56.0819 8.70317 54.8528C9.92815 53.6238 11.4889 52.7868 13.188 52.4477C14.8871 52.1086 16.6482 52.2827 18.2487 52.9478C19.8492 53.613 21.2172 54.7394 22.1797 56.1846C23.1421 57.6298 23.6558 59.3289 23.6558 61.067C23.6534 63.3971 22.7298 65.631 21.0877 67.2785C19.4456 68.9261 17.2191 69.8528 14.8968 69.8552Z" fill="#6D91EE"/>
<path d="M14.897 58.1685C14.3256 58.1685 13.767 58.3385 13.2919 58.657C12.8169 58.9755 12.4466 59.4282 12.2279 59.9578C12.0092 60.4875 11.952 61.0703 12.0635 61.6326C12.175 62.1948 12.4501 62.7113 12.8542 63.1167C13.2582 63.5221 13.773 63.7981 14.3334 63.91C14.8938 64.0218 15.4747 63.9644 16.0026 63.745C16.5305 63.5256 16.9817 63.1541 17.2991 62.6774C17.6166 62.2008 17.786 61.6404 17.786 61.0671C17.7852 60.2985 17.4806 59.5617 16.939 59.0183C16.3973 58.4749 15.663 58.1693 14.897 58.1685ZM14.897 61.8209C14.7478 61.8209 14.602 61.7765 14.4779 61.6933C14.3539 61.6101 14.2572 61.4919 14.2001 61.3537C14.143 61.2154 14.1281 61.0632 14.1572 60.9164C14.1863 60.7696 14.2581 60.6347 14.3636 60.5289C14.4691 60.423 14.6035 60.351 14.7498 60.3218C14.8962 60.2926 15.0478 60.3075 15.1857 60.3648C15.3235 60.4221 15.4413 60.5191 15.5242 60.6436C15.6071 60.768 15.6513 60.9144 15.6513 61.064C15.6513 61.2648 15.5718 61.4573 15.4304 61.5992C15.2889 61.7411 15.0971 61.8209 14.897 61.8209Z" fill="#6D91EE"/>
<path d="M61.3275 50.134C59.1723 50.134 57.0655 50.7752 55.2736 51.9766C53.4816 53.1779 52.0849 54.8854 51.2602 56.8831C50.4354 58.8809 50.2196 61.0792 50.6401 63.1999C51.0605 65.3207 52.0984 67.2688 53.6223 68.7978C55.1463 70.3268 57.0879 71.3681 59.2017 71.7899C61.3154 72.2118 63.5064 71.9953 65.4975 71.1678C67.4887 70.3403 69.1905 68.939 70.3879 67.1411C71.5852 65.3432 72.2243 63.2294 72.2243 61.067C72.2211 58.1684 71.072 55.3894 69.0292 53.3398C66.9863 51.2901 64.2165 50.1372 61.3275 50.134ZM61.3275 69.8552C59.5947 69.857 57.9004 69.3431 56.4588 68.3785C55.0172 67.414 53.8931 66.0421 53.2287 64.4364C52.5644 62.8307 52.3896 61.0634 52.7266 59.3581C53.0635 57.6528 53.897 56.086 55.1217 54.8561C56.3463 53.6261 57.907 52.7882 59.6063 52.4484C61.3057 52.1086 63.0673 52.2821 64.6683 52.947C66.2694 53.6118 67.6379 54.7382 68.6007 56.1836C69.5636 57.629 70.0775 59.3285 70.0775 61.067C70.0751 63.3955 69.1528 65.628 67.5126 67.2753C65.8725 68.9227 63.6483 69.8504 61.3275 69.8552Z" fill="#6D91EE"/>
<path d="M61.3277 58.1685C60.7563 58.1685 60.1978 58.3385 59.7227 58.657C59.2476 58.9755 58.8773 59.4282 58.6586 59.9578C58.44 60.4875 58.3828 61.0703 58.4942 61.6326C58.6057 62.1948 58.8809 62.7113 59.2849 63.1167C59.6889 63.5221 60.2037 63.7981 60.7641 63.91C61.3245 64.0218 61.9054 63.9644 62.4333 63.745C62.9612 63.5256 63.4124 63.1541 63.7299 62.6774C64.0473 62.2008 64.2167 61.6404 64.2167 61.0671C64.2159 60.2985 63.9113 59.5617 63.3697 59.0183C62.8281 58.4749 62.0937 58.1693 61.3277 58.1685ZM61.3277 61.8209C61.1785 61.8209 61.0327 61.7765 60.9087 61.6933C60.7846 61.6101 60.6879 61.4919 60.6308 61.3537C60.5738 61.2154 60.5588 61.0632 60.5879 60.9164C60.617 60.7696 60.6889 60.6347 60.7944 60.5289C60.8998 60.423 61.0343 60.351 61.1806 60.3218C61.3269 60.2926 61.4786 60.3075 61.6164 60.3648C61.7542 60.4221 61.872 60.5191 61.9549 60.6436C62.0378 60.768 62.082 60.9144 62.082 61.064C62.082 61.2648 62.0026 61.4573 61.8611 61.5992C61.7196 61.7411 61.5278 61.8209 61.3277 61.8209Z" fill="#6D91EE"/>
<path d="M48.7454 56.5761H27.3516C27.2078 56.5707 27.0645 56.5944 26.9301 56.6458C26.7957 56.6973 26.673 56.7754 26.5694 56.8755C26.4658 56.9756 26.3834 57.0957 26.3271 57.2285C26.2708 57.3613 26.2418 57.5042 26.2418 57.6485C26.2418 57.7928 26.2708 57.9356 26.3271 58.0685C26.3834 58.2013 26.4658 58.3213 26.5694 58.4214C26.673 58.5216 26.7957 58.5997 26.9301 58.6511C27.0645 58.7026 27.2078 58.7263 27.3516 58.7209H48.7454C48.8891 58.7263 49.0325 58.7026 49.1669 58.6511C49.3013 58.5997 49.424 58.5216 49.5276 58.4214C49.6312 58.3213 49.7136 58.2013 49.7699 58.0685C49.8262 57.9356 49.8552 57.7928 49.8552 57.6485C49.8552 57.5042 49.8262 57.3613 49.7699 57.2285C49.7136 57.0957 49.6312 56.9756 49.5276 56.8755C49.424 56.7754 49.3013 56.6973 49.1669 56.6458C49.0325 56.5944 48.8891 56.5707 48.7454 56.5761Z" fill="#6D91EE"/>
<path d="M12.8361 25.1531H13.1861L16.5217 48.5962C16.5318 48.7434 16.572 48.8869 16.6399 49.0178C16.7078 49.1487 16.8018 49.2641 16.9162 49.3569C17.0305 49.4497 17.1627 49.5178 17.3044 49.557C17.4462 49.5962 17.5945 49.6057 17.74 49.5849C17.8856 49.564 18.0253 49.5132 18.1505 49.4358C18.2756 49.3583 18.3835 49.2558 18.4673 49.1346C18.5512 49.0134 18.6093 48.8762 18.6379 48.7314C18.6665 48.5867 18.6651 48.4377 18.6338 48.2935L15.3465 25.1531H57.2727L53.7002 50.0176C53.6689 50.1617 53.6675 50.3108 53.6961 50.4555C53.7247 50.6002 53.7828 50.7374 53.8667 50.8586C53.9505 50.9798 54.0584 51.0823 54.1835 51.1598C54.3087 51.2373 54.4484 51.288 54.594 51.3089C54.7395 51.3297 54.8878 51.3203 55.0296 51.2811C55.1713 51.2418 55.3035 51.1737 55.4178 51.0809C55.5322 50.9882 55.6262 50.8727 55.6941 50.7419C55.762 50.611 55.8022 50.4675 55.8123 50.3203L59.433 25.15H59.7845C60.0679 25.1496 60.3396 25.0364 60.5399 24.8352C60.7401 24.634 60.8526 24.3612 60.8526 24.0769V22.5829C60.8514 21.315 60.349 20.0993 59.4555 19.2026C58.5621 18.3059 57.3506 17.8014 56.0869 17.7998H42.3584C42.0357 16.433 41.2627 15.2154 40.1645 14.3441C39.0664 13.4728 37.7073 12.9988 36.3073 12.9988C34.9073 12.9988 33.5482 13.4728 32.4501 14.3441C31.3519 15.2154 30.5789 16.433 30.2562 17.7998H16.5277C15.264 17.8014 14.0525 18.3059 13.1591 19.2026C12.2656 20.0993 11.7632 21.315 11.762 22.5829V24.0799C11.7618 24.2208 11.7893 24.3603 11.8429 24.4905C11.8964 24.6207 11.9751 24.739 12.0743 24.8386C12.1735 24.9383 12.2913 25.0174 12.421 25.0713C12.5507 25.1253 12.6897 25.1531 12.8301 25.1531H12.8361ZM36.3103 15.1449C37.1403 15.147 37.9501 15.402 38.6325 15.8761C39.3149 16.3502 39.8377 17.021 40.1317 17.7998H32.489C32.783 17.021 33.3057 16.3502 33.9881 15.8761C34.6705 15.402 35.4803 15.147 36.3103 15.1449ZM13.9057 22.5829C13.9065 21.8838 14.1837 21.2136 14.6763 20.7193C15.169 20.225 15.837 19.947 16.5338 19.9462H56.0869C56.7838 19.9474 57.4518 20.2258 57.9444 20.7203C58.437 21.2149 58.7141 21.8852 58.7149 22.5844V23.0082H13.9088L13.9057 22.5829Z" fill="#6D91EE"/>
<path d="M34.5848 47.8894C34.8685 47.8894 35.1406 47.7763 35.3411 47.5751C35.5417 47.3738 35.6544 47.1008 35.6544 46.8162C35.6544 46.5316 35.5417 46.2586 35.3411 46.0574C35.1406 45.8561 34.8685 45.743 34.5848 45.743H28.6318L30.2913 42.8459L30.6232 44.0493C30.6855 44.2755 30.82 44.4749 31.0061 44.6171C31.1922 44.7592 31.4197 44.8363 31.6536 44.8364C31.7504 44.8365 31.8469 44.8233 31.9402 44.797C32.0754 44.7594 32.202 44.6954 32.3126 44.6087C32.4231 44.522 32.5156 44.4143 32.5847 44.2917C32.6538 44.1691 32.6981 44.0341 32.7151 43.8943C32.7321 43.7546 32.7216 43.6128 32.6839 43.4771L31.6852 39.858C31.6547 39.7112 31.5935 39.5725 31.5056 39.4512C31.4177 39.3298 31.3051 39.2286 31.1753 39.1542C31.0268 39.0693 30.8603 39.021 30.6895 39.0134H30.6307C30.5375 39.0136 30.4447 39.0258 30.3546 39.0498L26.6872 40.0684C26.4382 40.138 26.2228 40.2957 26.0807 40.5122C25.9386 40.7288 25.8795 40.9897 25.9143 41.2466C25.949 41.5036 26.0753 41.7392 26.2698 41.9099C26.4643 42.0806 26.7139 42.175 26.9723 42.1754C27.0687 42.1756 27.1647 42.1624 27.2574 42.1361L28.416 41.8152L25.8514 46.2804C25.7579 46.4437 25.709 46.6288 25.7094 46.8171C25.7098 47.0054 25.7596 47.1903 25.8538 47.3532C25.9479 47.516 26.0832 47.6512 26.2459 47.7451C26.4086 47.8389 26.593 47.8882 26.7807 47.8879L34.5848 47.8894Z" fill="#6D91EE"/>
<path d="M46.1407 47.8924C46.3281 47.8921 46.5122 47.8425 46.6745 47.7484C46.8368 47.6543 46.9716 47.5191 47.0654 47.3563C47.1592 47.1935 47.2087 47.0089 47.209 46.8208C47.2093 46.6328 47.1603 46.448 47.067 46.2849L43.1763 39.4993C43.1063 39.3772 43.0131 39.2702 42.902 39.1843C42.7908 39.0984 42.6639 39.0353 42.5284 38.9986C42.3929 38.9619 42.2516 38.9523 42.1124 38.9705C41.9733 38.9886 41.8391 39.034 41.7174 39.1042C41.5958 39.1744 41.4891 39.2679 41.4035 39.3794C41.3179 39.4909 41.255 39.6183 41.2184 39.7542C41.1818 39.8901 41.1723 40.0319 41.1904 40.1716C41.2084 40.3112 41.2537 40.4458 41.3237 40.5679L44.2911 45.746H40.9616L41.8366 44.856C41.9357 44.7557 42.0141 44.6369 42.0673 44.5062C42.1206 44.3755 42.1477 44.2356 42.1471 44.0944C42.1464 43.9532 42.1181 43.8135 42.0637 43.6833C42.0092 43.5531 41.9298 43.4349 41.8298 43.3356C41.7299 43.2362 41.6114 43.1575 41.4811 43.1041C41.3509 43.0506 41.2114 43.0234 41.0707 43.0241C40.93 43.0247 40.7908 43.0531 40.661 43.1078C40.5312 43.1624 40.4135 43.2421 40.3144 43.3424L37.6864 46.0139C37.5748 46.1142 37.4856 46.2369 37.4245 46.3741C37.3634 46.5113 37.3318 46.6599 37.3319 46.8101C37.3314 46.9792 37.3718 47.1459 37.4495 47.296C37.4524 47.3043 37.4559 47.3124 37.4601 47.3202L37.4752 47.3429C37.5224 47.4288 37.5819 47.5073 37.6517 47.576L40.3582 50.2657C40.56 50.4665 40.8331 50.5785 41.1173 50.5772C41.4015 50.576 41.6735 50.4615 41.8736 50.2589C42.0736 50.0564 42.1853 49.7824 42.184 49.4973C42.1828 49.2122 42.0686 48.9392 41.8668 48.7385L41.0114 47.8908L46.1407 47.8924Z" fill="#6D91EE"/>
<path d="M35.6071 35.4911C35.536 35.7665 35.5768 36.0589 35.7205 36.3041C35.8642 36.5494 36.0991 36.7273 36.3735 36.7989L39.9942 37.7404C40.1366 37.7881 40.2874 37.8048 40.4368 37.7894C40.5861 37.774 40.7304 37.7268 40.8601 37.6511C40.9982 37.5707 41.1167 37.4606 41.2071 37.3287C41.2103 37.3216 41.2143 37.315 41.2192 37.309C41.2478 37.2661 41.273 37.2211 41.2946 37.1743L41.3082 37.1425C41.3284 37.0959 41.345 37.0478 41.358 36.9987C41.358 36.9987 41.358 36.9987 41.358 36.9896L42.3175 33.2933C42.3573 33.1555 42.3692 33.0111 42.3524 32.8686C42.3356 32.7261 42.2905 32.5884 42.2198 32.4637C42.149 32.339 42.0541 32.2298 41.9406 32.1426C41.827 32.0553 41.6972 31.9918 41.5588 31.9558C41.4204 31.9197 41.2762 31.9119 41.1347 31.9328C40.9932 31.9536 40.8573 32.0027 40.7351 32.0772C40.6128 32.1517 40.5067 32.25 40.423 32.3663C40.3393 32.4826 40.2796 32.6146 40.2476 32.7544L39.9459 33.923L37.3737 29.4623C37.28 29.2995 37.1452 29.1644 36.9828 29.0705C36.8205 28.9767 36.6363 28.9276 36.4489 28.928C36.2613 28.9281 36.0769 28.9776 35.9144 29.0716C35.7518 29.1657 35.6167 29.3009 35.5226 29.4638L31.6183 36.2403C31.544 36.3624 31.4949 36.4982 31.4736 36.6397C31.4524 36.7811 31.4596 36.9254 31.4948 37.064C31.5299 37.2026 31.5923 37.3328 31.6784 37.4469C31.7644 37.5609 31.8722 37.6566 31.9956 37.7282C32.119 37.7999 32.2555 37.846 32.3969 37.864C32.5383 37.882 32.6819 37.8714 32.8192 37.8329C32.9565 37.7944 33.0848 37.7288 33.1964 37.6398C33.3081 37.5509 33.4009 37.4405 33.4694 37.315L36.4489 32.1429L38.1175 35.0355L36.9106 34.7222C36.6361 34.6508 36.3446 34.6918 36.1002 34.8359C35.8558 34.9801 35.6784 35.2158 35.6071 35.4911Z" fill="#6D91EE"/>
</g>
<rect x="4.5" y="13.5" width="82" height="58" stroke="black" shape-rendering="crispEdges"/>
</g>
<path d="M134.12 57L123.74 39.48H116V57H111.8V15.06H124.4C129.08 15.06 132.62 16.18 135.02 18.42C137.46 20.66 138.68 23.6 138.68 27.24C138.68 30.28 137.8 32.88 136.04 35.04C134.32 37.16 131.76 38.54 128.36 39.18L139.16 57H134.12ZM116 36.06H124.46C127.74 36.06 130.2 35.26 131.84 33.66C133.52 32.06 134.36 29.92 134.36 27.24C134.36 24.48 133.56 22.36 131.96 20.88C130.36 19.36 127.84 18.6 124.4 18.6H116V36.06ZM161.355 57.48C158.275 57.48 155.495 56.8 153.015 55.44C150.575 54.04 148.635 52.08 147.195 49.56C145.795 47 145.095 44.02 145.095 40.62C145.095 37.22 145.815 34.26 147.255 31.74C148.695 29.18 150.655 27.22 153.135 25.86C155.615 24.46 158.395 23.76 161.475 23.76C164.555 23.76 167.335 24.46 169.815 25.86C172.335 27.22 174.295 29.18 175.695 31.74C177.135 34.26 177.855 37.22 177.855 40.62C177.855 43.98 177.135 46.94 175.695 49.5C174.255 52.06 172.275 54.04 169.755 55.44C167.235 56.8 164.435 57.48 161.355 57.48ZM161.355 53.82C163.515 53.82 165.515 53.34 167.355 52.38C169.195 51.38 170.675 49.9 171.795 47.94C172.955 45.94 173.535 43.5 173.535 40.62C173.535 37.74 172.975 35.32 171.855 33.36C170.735 31.36 169.255 29.88 167.415 28.92C165.575 27.92 163.575 27.42 161.415 27.42C159.255 27.42 157.255 27.92 155.415 28.92C153.575 29.88 152.095 31.36 150.975 33.36C149.895 35.32 149.355 37.74 149.355 40.62C149.355 43.5 149.895 45.94 150.975 47.94C152.095 49.9 153.555 51.38 155.355 52.38C157.195 53.34 159.195 53.82 161.355 53.82ZM213.891 24.24V57H209.691V51.24C208.731 53.28 207.251 54.84 205.251 55.92C203.251 57 201.011 57.54 198.531 57.54C194.611 57.54 191.411 56.34 188.931 53.94C186.451 51.5 185.211 47.98 185.211 43.38V24.24H189.351V42.9C189.351 46.46 190.231 49.18 191.991 51.06C193.791 52.94 196.231 53.88 199.311 53.88C202.471 53.88 204.991 52.88 206.871 50.88C208.751 48.88 209.691 45.94 209.691 42.06V24.24H213.891ZM238.84 23.64C242.76 23.64 245.96 24.86 248.44 27.3C250.92 29.7 252.16 33.2 252.16 37.8V57H248.02V38.28C248.02 34.72 247.12 32 245.32 30.12C243.56 28.24 241.14 27.3 238.06 27.3C234.9 27.3 232.38 28.3 230.5 30.3C228.62 32.3 227.68 35.24 227.68 39.12V57H223.48V24.24H227.68V29.82C228.72 27.82 230.22 26.3 232.18 25.26C234.14 24.18 236.36 23.64 238.84 23.64ZM259.528 40.56C259.528 37.2 260.208 34.26 261.568 31.74C262.928 29.18 264.788 27.22 267.148 25.86C269.548 24.46 272.248 23.76 275.248 23.76C278.128 23.76 280.728 24.46 283.048 25.86C285.368 27.26 287.068 29.08 288.148 31.32V12.6H292.348V57H288.148V49.68C287.148 51.96 285.508 53.84 283.228 55.32C280.948 56.76 278.268 57.48 275.188 57.48C272.188 57.48 269.488 56.78 267.088 55.38C264.728 53.98 262.868 52 261.508 49.44C260.188 46.88 259.528 43.92 259.528 40.56ZM288.148 40.62C288.148 37.98 287.608 35.66 286.528 33.66C285.448 31.66 283.968 30.12 282.088 29.04C280.248 27.96 278.208 27.42 275.968 27.42C273.648 27.42 271.568 27.94 269.728 28.98C267.888 30.02 266.428 31.54 265.348 33.54C264.308 35.5 263.788 37.84 263.788 40.56C263.788 43.24 264.308 45.6 265.348 47.64C266.428 49.64 267.888 51.18 269.728 52.26C271.568 53.3 273.648 53.82 275.968 53.82C278.208 53.82 280.248 53.28 282.088 52.2C283.968 51.12 285.448 49.58 286.528 47.58C287.608 45.58 288.148 43.26 288.148 40.62ZM340.722 57L330.342 39.48H322.602V57H318.402V15.06H331.002C335.682 15.06 339.222 16.18 341.622 18.42C344.062 20.66 345.282 23.6 345.282 27.24C345.282 30.28 344.402 32.88 342.642 35.04C340.922 37.16 338.362 38.54 334.962 39.18L345.762 57H340.722ZM322.602 36.06H331.062C334.342 36.06 336.802 35.26 338.442 33.66C340.122 32.06 340.962 29.92 340.962 27.24C340.962 24.48 340.162 22.36 338.562 20.88C336.962 19.36 334.442 18.6 331.002 18.6H322.602V36.06ZM367.956 57.48C364.876 57.48 362.096 56.8 359.616 55.44C357.176 54.04 355.236 52.08 353.796 49.56C352.396 47 351.696 44.02 351.696 40.62C351.696 37.22 352.416 34.26 353.856 31.74C355.296 29.18 357.256 27.22 359.736 25.86C362.216 24.46 364.996 23.76 368.076 23.76C371.156 23.76 373.936 24.46 376.416 25.86C378.936 27.22 380.896 29.18 382.296 31.74C383.736 34.26 384.456 37.22 384.456 40.62C384.456 43.98 383.736 46.94 382.296 49.5C380.856 52.06 378.876 54.04 376.356 55.44C373.836 56.8 371.036 57.48 367.956 57.48ZM367.956 53.82C370.116 53.82 372.116 53.34 373.956 52.38C375.796 51.38 377.276 49.9 378.396 47.94C379.556 45.94 380.136 43.5 380.136 40.62C380.136 37.74 379.576 35.32 378.456 33.36C377.336 31.36 375.856 29.88 374.016 28.92C372.176 27.92 370.176 27.42 368.016 27.42C365.856 27.42 363.856 27.92 362.016 28.92C360.176 29.88 358.696 31.36 357.576 33.36C356.496 35.32 355.956 37.74 355.956 40.62C355.956 43.5 356.496 45.94 357.576 47.94C358.696 49.9 360.156 51.38 361.956 52.38C363.796 53.34 365.796 53.82 367.956 53.82ZM390.193 40.62C390.193 37.22 390.873 34.26 392.233 31.74C393.593 29.18 395.473 27.22 397.873 25.86C400.273 24.46 403.013 23.76 406.093 23.76C410.133 23.76 413.453 24.76 416.053 26.76C418.693 28.76 420.393 31.48 421.153 34.92H416.653C416.093 32.56 414.873 30.72 412.993 29.4C411.153 28.04 408.853 27.36 406.093 27.36C403.893 27.36 401.913 27.86 400.153 28.86C398.393 29.86 396.993 31.36 395.953 33.36C394.953 35.32 394.453 37.74 394.453 40.62C394.453 43.5 394.953 45.94 395.953 47.94C396.993 49.94 398.393 51.44 400.153 52.44C401.913 53.44 403.893 53.94 406.093 53.94C408.853 53.94 411.153 53.28 412.993 51.96C414.873 50.6 416.093 48.72 416.653 46.32H421.153C420.393 49.68 418.693 52.38 416.053 54.42C413.413 56.46 410.093 57.48 406.093 57.48C403.013 57.48 400.273 56.8 397.873 55.44C395.473 54.04 393.593 52.08 392.233 49.56C390.873 47 390.193 44.02 390.193 40.62ZM446.609 57L433.109 42.3V57H428.909V12.6H433.109V38.88L446.309 24.24H452.189L436.649 40.56L452.309 57H446.609ZM119.327 67.195V70.471H115.379V82H111.263V70.471H107.357V67.195H119.327ZM140.821 72.298C141.283 71.626 141.843 71.094 142.501 70.702C143.159 70.31 143.866 70.114 144.622 70.114V74.503H143.467C142.571 74.503 141.906 74.678 141.472 75.028C141.038 75.378 140.821 75.987 140.821 76.855V82H136.705V70.219H140.821V72.298ZM174.006 70.219V82H169.869V80.32C169.519 80.852 169.036 81.286 168.42 81.622C167.804 81.944 167.097 82.105 166.299 82.105C164.927 82.105 163.842 81.657 163.044 80.761C162.26 79.851 161.868 78.619 161.868 77.065V70.219H165.963V76.54C165.963 77.212 166.138 77.744 166.488 78.136C166.852 78.514 167.328 78.703 167.916 78.703C168.518 78.703 168.994 78.514 169.344 78.136C169.694 77.744 169.869 77.212 169.869 76.54V70.219H174.006ZM197.223 82.147C196.159 82.147 195.207 81.972 194.367 81.622C193.541 81.258 192.883 80.768 192.393 80.152C191.917 79.522 191.651 78.815 191.595 78.031H195.585C195.641 78.409 195.816 78.703 196.11 78.913C196.404 79.123 196.768 79.228 197.202 79.228C197.538 79.228 197.804 79.158 198 79.018C198.196 78.878 198.294 78.696 198.294 78.472C198.294 78.178 198.133 77.961 197.811 77.821C197.489 77.681 196.957 77.527 196.215 77.359C195.375 77.191 194.675 77.002 194.115 76.792C193.555 76.582 193.065 76.239 192.645 75.763C192.239 75.287 192.036 74.643 192.036 73.831C192.036 73.131 192.225 72.501 192.603 71.941C192.981 71.367 193.534 70.912 194.262 70.576C195.004 70.24 195.893 70.072 196.929 70.072C198.469 70.072 199.68 70.45 200.562 71.206C201.444 71.962 201.955 72.956 202.095 74.188H198.378C198.308 73.81 198.14 73.523 197.874 73.327C197.622 73.117 197.279 73.012 196.845 73.012C196.509 73.012 196.25 73.075 196.068 73.201C195.9 73.327 195.816 73.502 195.816 73.726C195.816 74.006 195.977 74.223 196.299 74.377C196.621 74.517 197.139 74.664 197.853 74.818C198.707 75 199.414 75.203 199.974 75.427C200.548 75.651 201.045 76.015 201.465 76.519C201.899 77.009 202.116 77.681 202.116 78.535C202.116 79.221 201.913 79.837 201.507 80.383C201.115 80.929 200.548 81.363 199.806 81.685C199.078 81.993 198.217 82.147 197.223 82.147ZM227.743 70.114C229.087 70.114 230.151 70.569 230.935 71.479C231.733 72.375 232.132 73.593 232.132 75.133V82H228.016V75.679C228.016 75.007 227.841 74.482 227.491 74.104C227.141 73.712 226.672 73.516 226.084 73.516C225.468 73.516 224.985 73.712 224.635 74.104C224.285 74.482 224.11 75.007 224.11 75.679V82H219.994V66.46H224.11V71.899C224.474 71.367 224.964 70.94 225.58 70.618C226.21 70.282 226.931 70.114 227.743 70.114ZM283.371 67.195V82H279.255V76.057H274.236V82H270.12V67.195H274.236V72.76H279.255V67.195H283.371ZM300.91 76.099C300.91 74.881 301.127 73.817 301.561 72.907C302.009 71.997 302.611 71.297 303.367 70.807C304.137 70.317 304.991 70.072 305.929 70.072C306.741 70.072 307.441 70.233 308.029 70.555C308.617 70.877 309.072 71.311 309.394 71.857V70.219H313.51V82H309.394V80.362C309.072 80.908 308.61 81.342 308.008 81.664C307.42 81.986 306.727 82.147 305.929 82.147C304.991 82.147 304.137 81.902 303.367 81.412C302.611 80.922 302.009 80.222 301.561 79.312C301.127 78.388 300.91 77.317 300.91 76.099ZM309.394 76.099C309.394 75.343 309.184 74.748 308.764 74.314C308.358 73.88 307.854 73.663 307.252 73.663C306.636 73.663 306.125 73.88 305.719 74.314C305.313 74.734 305.11 75.329 305.11 76.099C305.11 76.855 305.313 77.457 305.719 77.905C306.125 78.339 306.636 78.556 307.252 78.556C307.854 78.556 308.358 78.339 308.764 77.905C309.184 77.471 309.394 76.869 309.394 76.099ZM343.764 70.219V82H339.627V80.32C339.277 80.852 338.794 81.286 338.178 81.622C337.562 81.944 336.855 82.105 336.057 82.105C334.685 82.105 333.6 81.657 332.802 80.761C332.018 79.851 331.626 78.619 331.626 77.065V70.219H335.721V76.54C335.721 77.212 335.896 77.744 336.246 78.136C336.61 78.514 337.086 78.703 337.674 78.703C338.276 78.703 338.752 78.514 339.102 78.136C339.452 77.744 339.627 77.212 339.627 76.54V70.219H343.764ZM366.078 66.46V82H361.962V66.46H366.078ZM386.356 69.127C385.628 69.127 385.04 68.931 384.592 68.539C384.158 68.133 383.941 67.629 383.941 67.027C383.941 66.411 384.158 65.9 384.592 65.494C385.04 65.088 385.628 64.885 386.356 64.885C387.07 64.885 387.644 65.088 388.078 65.494C388.526 65.9 388.75 66.411 388.75 67.027C388.75 67.629 388.526 68.133 388.078 68.539C387.644 68.931 387.07 69.127 386.356 69.127ZM388.393 70.219V82H384.277V70.219H388.393ZM414.299 70.114C415.657 70.114 416.735 70.569 417.533 71.479C418.331 72.375 418.73 73.593 418.73 75.133V82H414.614V75.679C414.614 75.007 414.439 74.482 414.089 74.104C413.739 73.712 413.27 73.516 412.682 73.516C412.066 73.516 411.583 73.712 411.233 74.104C410.883 74.482 410.708 75.007 410.708 75.679V82H406.592V70.219H410.708V71.899C411.072 71.367 411.562 70.94 412.178 70.618C412.794 70.282 413.501 70.114 414.299 70.114ZM441.19 70.072C441.988 70.072 442.681 70.233 443.269 70.555C443.871 70.877 444.333 71.311 444.655 71.857V70.219H448.771V81.874C448.771 82.98 448.561 83.974 448.141 84.856C447.721 85.752 447.063 86.466 446.167 86.998C445.285 87.53 444.165 87.796 442.807 87.796C440.987 87.796 439.531 87.369 438.439 86.515C437.347 85.661 436.724 84.499 436.57 83.029H440.623C440.707 83.407 440.917 83.701 441.253 83.911C441.589 84.121 442.023 84.226 442.555 84.226C443.955 84.226 444.655 83.442 444.655 81.874V80.362C444.333 80.908 443.871 81.342 443.269 81.664C442.681 81.986 441.988 82.147 441.19 82.147C440.252 82.147 439.398 81.902 438.628 81.412C437.872 80.922 437.27 80.222 436.822 79.312C436.388 78.388 436.171 77.317 436.171 76.099C436.171 74.881 436.388 73.817 436.822 72.907C437.27 71.997 437.872 71.297 438.628 70.807C439.398 70.317 440.252 70.072 441.19 70.072ZM444.655 76.099C444.655 75.343 444.445 74.748 444.025 74.314C443.619 73.88 443.115 73.663 442.513 73.663C441.897 73.663 441.386 73.88 440.98 74.314C440.574 74.734 440.371 75.329 440.371 76.099C440.371 76.855 440.574 77.457 440.98 77.905C441.386 78.339 441.897 78.556 442.513 78.556C443.115 78.556 443.619 78.339 444.025 77.905C444.445 77.471 444.655 76.869 444.655 76.099Z" fill="#6D91EE"/>
<defs>
<filter id="filter0_d_1_149" x="0" y="13" width="91" height="67" filterUnits="userSpaceOnUse" color-interpolation-filters="sRGB">
<feFlood flood-opacity="0" result="BackgroundImageFix"/>
<feColorMatrix in="SourceAlpha" type="matrix" values="0 0 0 0 0 0 0 0 0 0 0 0 0 0 0 0 0 0 127 0" result="hardAlpha"/>
<feOffset dy="4"/>
<feGaussianBlur stdDeviation="2"/>
<feComposite in2="hardAlpha" operator="out"/>
<feColorMatrix type="matrix" values="0 0 0 0 0 0 0 0 0 0 0 0 0 0 0 0 0 0 0.25 0"/>
<feBlend mode="normal" in2="BackgroundImageFix" result="effect1_dropShadow_1_149"/>
<feBlend mode="normal" in="SourceGraphic" in2="effect1_dropShadow_1_149" result="shape"/>
</filter>
<clipPath id="clip0_1_149">
<rect x="4" y="13" width="83" height="59" fill="white"/>
</clipPath>
</defs>
</svg>
