<svg width="83" height="59" viewBox="0 0 83 59" fill="none" xmlns="http://www.w3.org/2000/svg">
<path d="M69.9127 7.1747C69.8639 7.15138 69.8135 7.13165 69.7618 7.11567C67.376 6.18604 64.8385 5.71022 62.2791 5.71253H60.1519C60.0114 5.71233 59.8722 5.73996 59.7423 5.79382C59.6125 5.84768 59.4945 5.92672 59.3951 6.02641C59.2958 6.1261 59.217 6.24449 59.1633 6.37478C59.1096 6.50507 59.0821 6.64471 59.0823 6.7857V35.3783C59.0927 35.6557 59.2098 35.9183 59.4092 36.1109C59.6085 36.3035 59.8744 36.4111 60.1512 36.4111C60.4279 36.4111 60.6938 36.3035 60.8931 36.1109C61.0925 35.9183 61.2096 35.6557 61.22 35.3783V7.85735H62.276C64.3557 7.8562 66.4206 8.2062 68.3845 8.89268V29.1073C68.3853 29.9968 68.7377 30.8496 69.3644 31.4787C69.9912 32.1078 70.841 32.4618 71.7276 32.463H80.8623V37.0039H73.0657C72.922 36.9985 72.7786 37.0222 72.6442 37.0737C72.5098 37.1251 72.3872 37.2033 72.2836 37.3034C72.18 37.4035 72.0975 37.5235 72.0413 37.6564C71.985 37.7892 71.9559 37.932 71.9559 38.0763C71.9559 38.2207 71.985 38.3635 72.0413 38.4963C72.0975 38.6291 72.18 38.7492 72.2836 38.8493C72.3872 38.9494 72.5098 39.0275 72.6442 39.079C72.7786 39.1304 72.922 39.1542 73.0657 39.1487H80.8623V43.5701H69.7754C69.6317 43.5647 69.4883 43.5884 69.3539 43.6398C69.2195 43.6913 69.0969 43.7694 68.9933 43.8695C68.8897 43.9696 68.8072 44.0897 68.7509 44.2225C68.6947 44.3553 68.6656 44.4982 68.6656 44.6425C68.6656 44.7868 68.6947 44.9296 68.7509 45.0625C68.8072 45.1953 68.8897 45.3153 68.9933 45.4154C69.0969 45.5156 69.2195 45.5937 69.3539 45.6451C69.4883 45.6966 69.6317 45.7203 69.7754 45.7149H81.9319C82.2152 45.7149 82.4869 45.602 82.6872 45.401C82.8875 45.2 83 44.9275 83 44.6432V26.5053C82.9955 22.3396 81.746 18.2709 79.413 14.8249C77.0801 11.379 73.7708 8.71416 69.9127 7.1747ZM71.7231 30.3167C71.403 30.3167 71.096 30.1891 70.8696 29.962C70.6433 29.7349 70.5162 29.4269 70.5162 29.1058V9.79784C73.6198 11.3404 76.2327 13.7216 78.0606 16.6734C79.8885 19.6251 80.8588 23.0302 80.8623 26.5053V30.3167H71.7231Z" fill="#6D91EE"/>
<path d="M10.8968 37.134C8.74159 37.134 6.6348 37.7752 4.84283 38.9766C3.05087 40.1779 1.6542 41.8854 0.829444 43.8831C0.00469091 45.8809 -0.211102 48.0792 0.209353 50.1999C0.629808 52.3207 1.66763 54.2688 3.19157 55.7978C4.71552 57.3268 6.65714 58.3681 8.77091 58.7899C10.8847 59.2118 13.0757 58.9953 15.0668 58.1678C17.0579 57.3403 18.7598 55.939 19.9571 54.1411C21.1545 52.3432 21.7936 50.2294 21.7936 48.067C21.7904 45.1684 20.6413 42.3894 18.5984 40.3398C16.5556 38.2901 13.7858 37.1372 10.8968 37.134ZM10.8968 56.8552C9.16439 56.8552 7.47091 56.3398 6.03049 55.3741C4.59007 54.4085 3.46739 53.0359 2.80444 51.4301C2.14149 49.8243 1.96803 48.0573 2.306 46.3525C2.64397 44.6478 3.47819 43.0819 4.70317 41.8528C5.92815 40.6238 7.48886 39.7868 9.18796 39.4477C10.8871 39.1086 12.6482 39.2827 14.2487 39.9478C15.8492 40.613 17.2172 41.7394 18.1797 43.1846C19.1421 44.6298 19.6558 46.3289 19.6558 48.067C19.6534 50.3971 18.7298 52.631 17.0877 54.2785C15.4456 55.9261 13.2191 56.8528 10.8968 56.8552Z" fill="#6D91EE"/>
<path d="M10.897 45.1685C10.3256 45.1685 9.76704 45.3385 9.29195 45.657C8.81685 45.9755 8.44656 46.4282 8.22789 46.9578C8.00923 47.4875 7.95202 48.0703 8.06349 48.6326C8.17497 49.1948 8.45012 49.7113 8.85415 50.1167C9.25819 50.5221 9.77296 50.7981 10.3334 50.91C10.8938 51.0218 11.4747 50.9644 12.0026 50.745C12.5305 50.5256 12.9817 50.1541 13.2991 49.6774C13.6166 49.2008 13.786 48.6404 13.786 48.0671C13.7852 47.2985 13.4806 46.5617 12.939 46.0183C12.3973 45.4749 11.663 45.1693 10.897 45.1685ZM10.897 48.8209C10.7478 48.8209 10.602 48.7765 10.4779 48.6933C10.3539 48.6101 10.2572 48.4919 10.2001 48.3537C10.143 48.2154 10.1281 48.0632 10.1572 47.9164C10.1863 47.7696 10.2581 47.6347 10.3636 47.5289C10.4691 47.423 10.6035 47.351 10.7498 47.3218C10.8962 47.2926 11.0478 47.3075 11.1857 47.3648C11.3235 47.4221 11.4413 47.5191 11.5242 47.6436C11.6071 47.768 11.6513 47.9144 11.6513 48.064C11.6513 48.2648 11.5718 48.4573 11.4304 48.5992C11.2889 48.7411 11.0971 48.8209 10.897 48.8209Z" fill="#6D91EE"/>
<path d="M57.3275 37.134C55.1723 37.134 53.0655 37.7752 51.2736 38.9766C49.4816 40.1779 48.0849 41.8854 47.2602 43.8831C46.4354 45.8809 46.2196 48.0792 46.6401 50.1999C47.0605 52.3207 48.0984 54.2688 49.6223 55.7978C51.1463 57.3268 53.0879 58.3681 55.2017 58.7899C57.3154 59.2118 59.5064 58.9953 61.4975 58.1678C63.4887 57.3403 65.1905 55.939 66.3879 54.1411C67.5852 52.3432 68.2243 50.2294 68.2243 48.067C68.2211 45.1684 67.072 42.3894 65.0292 40.3398C62.9863 38.2901 60.2165 37.1372 57.3275 37.134ZM57.3275 56.8552C55.5947 56.857 53.9004 56.3431 52.4588 55.3785C51.0172 54.414 49.8931 53.0421 49.2287 51.4364C48.5644 49.8307 48.3896 48.0634 48.7266 46.3581C49.0635 44.6528 49.897 43.086 51.1217 41.8561C52.3463 40.6261 53.907 39.7882 55.6063 39.4484C57.3057 39.1086 59.0673 39.2821 60.6683 39.947C62.2694 40.6118 63.6379 41.7382 64.6007 43.1836C65.5636 44.629 66.0775 46.3285 66.0775 48.067C66.0751 50.3955 65.1528 52.628 63.5126 54.2753C61.8725 55.9227 59.6483 56.8504 57.3275 56.8552Z" fill="#6D91EE"/>
<path d="M57.3277 45.1685C56.7563 45.1685 56.1978 45.3385 55.7227 45.657C55.2476 45.9755 54.8773 46.4282 54.6586 46.9578C54.44 47.4875 54.3828 48.0703 54.4942 48.6326C54.6057 49.1948 54.8809 49.7113 55.2849 50.1167C55.6889 50.5221 56.2037 50.7981 56.7641 50.91C57.3245 51.0218 57.9054 50.9644 58.4333 50.745C58.9612 50.5256 59.4124 50.1541 59.7299 49.6774C60.0473 49.2008 60.2167 48.6404 60.2167 48.0671C60.2159 47.2985 59.9113 46.5617 59.3697 46.0183C58.8281 45.4749 58.0937 45.1693 57.3277 45.1685ZM57.3277 48.8209C57.1785 48.8209 57.0327 48.7765 56.9087 48.6933C56.7846 48.6101 56.6879 48.4919 56.6308 48.3537C56.5738 48.2154 56.5588 48.0632 56.5879 47.9164C56.617 47.7696 56.6889 47.6347 56.7944 47.5289C56.8998 47.423 57.0343 47.351 57.1806 47.3218C57.3269 47.2926 57.4786 47.3075 57.6164 47.3648C57.7542 47.4221 57.872 47.5191 57.9549 47.6436C58.0378 47.768 58.082 47.9144 58.082 48.064C58.082 48.2648 58.0026 48.4573 57.8611 48.5992C57.7196 48.7411 57.5278 48.8209 57.3277 48.8209Z" fill="#6D91EE"/>
<path d="M44.7454 43.5761H23.3516C23.2078 43.5707 23.0645 43.5944 22.9301 43.6458C22.7957 43.6973 22.673 43.7754 22.5694 43.8755C22.4658 43.9756 22.3834 44.0957 22.3271 44.2285C22.2708 44.3613 22.2418 44.5042 22.2418 44.6485C22.2418 44.7928 22.2708 44.9356 22.3271 45.0685C22.3834 45.2013 22.4658 45.3213 22.5694 45.4214C22.673 45.5216 22.7957 45.5997 22.9301 45.6511C23.0645 45.7026 23.2078 45.7263 23.3516 45.7209H44.7454C44.8891 45.7263 45.0325 45.7026 45.1669 45.6511C45.3013 45.5997 45.424 45.5216 45.5276 45.4214C45.6312 45.3213 45.7136 45.2013 45.7699 45.0685C45.8262 44.9356 45.8552 44.7928 45.8552 44.6485C45.8552 44.5042 45.8262 44.3613 45.7699 44.2285C45.7136 44.0957 45.6312 43.9756 45.5276 43.8755C45.424 43.7754 45.3013 43.6973 45.1669 43.6458C45.0325 43.5944 44.8891 43.5707 44.7454 43.5761Z" fill="#6D91EE"/>
<path d="M8.83612 12.1531H9.18612L12.5217 35.5962C12.5318 35.7434 12.572 35.8869 12.6399 36.0178C12.7078 36.1487 12.8018 36.2641 12.9162 36.3569C13.0305 36.4497 13.1627 36.5178 13.3044 36.557C13.4462 36.5962 13.5945 36.6057 13.74 36.5849C13.8856 36.564 14.0253 36.5132 14.1505 36.4358C14.2756 36.3583 14.3835 36.2558 14.4673 36.1346C14.5512 36.0134 14.6093 35.8762 14.6379 35.7314C14.6665 35.5867 14.6651 35.4377 14.6338 35.2935L11.3465 12.1531H53.2727L49.7002 37.0176C49.6689 37.1617 49.6675 37.3108 49.6961 37.4555C49.7247 37.6002 49.7828 37.7374 49.8667 37.8586C49.9505 37.9798 50.0584 38.0823 50.1835 38.1598C50.3087 38.2373 50.4484 38.288 50.594 38.3089C50.7395 38.3297 50.8878 38.3203 51.0296 38.2811C51.1713 38.2418 51.3035 38.1737 51.4178 38.0809C51.5322 37.9882 51.6262 37.8727 51.6941 37.7419C51.762 37.611 51.8022 37.4675 51.8123 37.3203L55.433 12.15H55.7845C56.0679 12.1496 56.3396 12.0364 56.5399 11.8352C56.7401 11.634 56.8526 11.3612 56.8526 11.0769V9.58291C56.8514 8.31499 56.349 7.09932 55.4555 6.20262C54.5621 5.30592 53.3506 4.80142 52.0869 4.79982H38.3584C38.0357 3.43297 37.2627 2.21537 36.1645 1.34408C35.0664 0.472782 33.7073 -0.0012207 32.3073 -0.0012207C30.9073 -0.0012207 29.5482 0.472782 28.4501 1.34408C27.3519 2.21537 26.5789 3.43297 26.2562 4.79982H12.5277C11.264 4.80142 10.0525 5.30592 9.15906 6.20262C8.26562 7.09932 7.76318 8.31499 7.76198 9.58291V11.0799C7.76178 11.2208 7.78926 11.3603 7.84285 11.4905C7.89644 11.6207 7.97508 11.739 8.07429 11.8386C8.17349 11.9383 8.2913 12.0174 8.42099 12.0713C8.55068 12.1253 8.68969 12.1531 8.83009 12.1531H8.83612ZM32.3103 2.1449C33.1403 2.14703 33.9501 2.40201 34.6325 2.87611C35.3149 3.3502 35.8377 4.02104 36.1317 4.79982H28.489C28.783 4.02104 29.3057 3.3502 29.9881 2.87611C30.6705 2.40201 31.4803 2.14703 32.3103 2.1449ZM9.90574 9.58291C9.90653 8.88385 10.1837 8.21364 10.6763 7.71933C11.169 7.22501 11.837 6.94696 12.5338 6.94616H52.0869C52.7838 6.94736 53.4518 7.22575 53.9444 7.72031C54.437 8.21486 54.7141 8.88522 54.7149 9.58442V10.0082H9.90875L9.90574 9.58291Z" fill="#6D91EE"/>
<path d="M30.5848 34.8894C30.8685 34.8894 31.1406 34.7763 31.3411 34.5751C31.5417 34.3738 31.6544 34.1008 31.6544 33.8162C31.6544 33.5316 31.5417 33.2586 31.3411 33.0574C31.1406 32.8561 30.8685 32.743 30.5848 32.743H24.6318L26.2913 29.8459L26.6232 31.0493C26.6855 31.2755 26.82 31.4749 27.0061 31.6171C27.1922 31.7592 27.4197 31.8363 27.6536 31.8364C27.7504 31.8365 27.8469 31.8233 27.9402 31.797C28.0754 31.7594 28.202 31.6954 28.3126 31.6087C28.4231 31.522 28.5156 31.4143 28.5847 31.2917C28.6538 31.1691 28.6981 31.0341 28.7151 30.8943C28.7321 30.7546 28.7216 30.6128 28.6839 30.4771L27.6852 26.858C27.6547 26.7112 27.5935 26.5725 27.5056 26.4512C27.4177 26.3298 27.3051 26.2286 27.1753 26.1542C27.0268 26.0693 26.8603 26.021 26.6895 26.0134H26.6307C26.5375 26.0136 26.4447 26.0258 26.3546 26.0498L22.6872 27.0684C22.4382 27.138 22.2228 27.2957 22.0807 27.5122C21.9386 27.7288 21.8795 27.9897 21.9143 28.2466C21.949 28.5036 22.0753 28.7392 22.2698 28.9099C22.4643 29.0806 22.7139 29.175 22.9723 29.1754C23.0687 29.1756 23.1647 29.1624 23.2574 29.1361L24.416 28.8152L21.8514 33.2804C21.7579 33.4437 21.709 33.6288 21.7094 33.8171C21.7098 34.0054 21.7596 34.1903 21.8538 34.3532C21.9479 34.516 22.0832 34.6512 22.2459 34.7451C22.4086 34.8389 22.593 34.8882 22.7807 34.8879L30.5848 34.8894Z" fill="#6D91EE"/>
<path d="M42.1407 34.8924C42.3281 34.8921 42.5122 34.8425 42.6745 34.7484C42.8368 34.6543 42.9716 34.5191 43.0654 34.3563C43.1592 34.1935 43.2087 34.0089 43.209 33.8208C43.2093 33.6328 43.1603 33.448 43.067 33.2849L39.1763 26.4993C39.1063 26.3772 39.0131 26.2702 38.902 26.1843C38.7908 26.0984 38.6639 26.0353 38.5284 25.9986C38.3929 25.9619 38.2516 25.9523 38.1124 25.9705C37.9733 25.9886 37.8391 26.034 37.7174 26.1042C37.5958 26.1744 37.4891 26.2679 37.4035 26.3794C37.3179 26.4909 37.255 26.6183 37.2184 26.7542C37.1818 26.8901 37.1723 27.0319 37.1904 27.1716C37.2084 27.3112 37.2537 27.4458 37.3237 27.5679L40.2911 32.746H36.9616L37.8366 31.856C37.9357 31.7557 38.0141 31.6369 38.0673 31.5062C38.1206 31.3755 38.1477 31.2356 38.1471 31.0944C38.1464 30.9532 38.1181 30.8135 38.0637 30.6833C38.0092 30.5531 37.9298 30.4349 37.8298 30.3356C37.7299 30.2362 37.6114 30.1575 37.4811 30.1041C37.3509 30.0506 37.2114 30.0234 37.0707 30.0241C36.93 30.0247 36.7908 30.0531 36.661 30.1078C36.5312 30.1624 36.4135 30.2421 36.3144 30.3424L33.6864 33.0139C33.5748 33.1142 33.4856 33.2369 33.4245 33.3741C33.3634 33.5113 33.3318 33.6599 33.3319 33.8101C33.3314 33.9792 33.3718 34.1459 33.4495 34.296C33.4524 34.3043 33.4559 34.3124 33.4601 34.3202L33.4752 34.3429C33.5224 34.4288 33.5819 34.5073 33.6517 34.576L36.3582 37.2657C36.56 37.4665 36.8331 37.5785 37.1173 37.5772C37.4015 37.576 37.6735 37.4615 37.8736 37.2589C38.0736 37.0564 38.1853 36.7824 38.184 36.4973C38.1828 36.2122 38.0686 35.9392 37.8668 35.7385L37.0114 34.8908L42.1407 34.8924Z" fill="#6D91EE"/>
<path d="M31.6071 22.4911C31.536 22.7665 31.5768 23.0589 31.7205 23.3041C31.8642 23.5494 32.0991 23.7273 32.3735 23.7989L35.9942 24.7404C36.1366 24.7881 36.2874 24.8048 36.4368 24.7894C36.5861 24.774 36.7304 24.7268 36.8601 24.6511C36.9982 24.5707 37.1167 24.4606 37.2071 24.3287C37.2103 24.3216 37.2143 24.315 37.2192 24.309C37.2478 24.2661 37.273 24.2211 37.2946 24.1743L37.3082 24.1425C37.3284 24.0959 37.345 24.0478 37.358 23.9987C37.358 23.9987 37.358 23.9987 37.358 23.9896L38.3175 20.2933C38.3573 20.1555 38.3692 20.0111 38.3524 19.8686C38.3356 19.7261 38.2905 19.5884 38.2198 19.4637C38.149 19.339 38.0541 19.2298 37.9406 19.1426C37.827 19.0553 37.6972 18.9918 37.5588 18.9558C37.4204 18.9197 37.2762 18.9119 37.1347 18.9328C36.9932 18.9536 36.8573 19.0027 36.7351 19.0772C36.6128 19.1517 36.5067 19.25 36.423 19.3663C36.3393 19.4826 36.2796 19.6146 36.2476 19.7544L35.9459 20.923L33.3737 16.4623C33.28 16.2995 33.1452 16.1644 32.9828 16.0705C32.8205 15.9767 32.6363 15.9276 32.4489 15.928C32.2613 15.9281 32.0769 15.9776 31.9144 16.0716C31.7518 16.1657 31.6167 16.3009 31.5226 16.4638L27.6183 23.2403C27.544 23.3624 27.4949 23.4982 27.4736 23.6397C27.4524 23.7811 27.4596 23.9254 27.4948 24.064C27.5299 24.2026 27.5923 24.3328 27.6784 24.4469C27.7644 24.5609 27.8722 24.6566 27.9956 24.7282C28.119 24.7999 28.2555 24.846 28.3969 24.864C28.5383 24.882 28.6819 24.8714 28.8192 24.8329C28.9565 24.7944 29.0848 24.7288 29.1964 24.6398C29.3081 24.5509 29.4009 24.4405 29.4694 24.315L32.4489 19.1429L34.1175 22.0355L32.9106 21.7222C32.6361 21.6508 32.3446 21.6918 32.1002 21.8359C31.8558 21.9801 31.6784 22.2158 31.6071 22.4911Z" fill="#6D91EE"/>
</svg>
